<?xml version="1.0" encoding="UTF-8"?>
<!DOCTYPE svg PUBLIC "-//W3C//DTD SVG 1.1//EN" "http://www.w3.org/Graphics/SVG/1.1/DTD/svg11.dtd">
<!-- Creator: CorelDRAW 2020 (64 Bit) -->
<svg xmlns="http://www.w3.org/2000/svg" xml:space="preserve" width="66.302mm" height="64.418mm" version="1.1" style="shape-rendering:geometricPrecision; text-rendering:geometricPrecision; image-rendering:optimizeQuality; fill-rule:evenodd; clip-rule:evenodd"
viewBox="0 0 632.73 614.75"
 xmlns:xlink="http://www.w3.org/1999/xlink"
 xmlns:xodm="http://www.corel.com/coreldraw/odm/2003">
 <defs>
  <style type="text/css">
   <![CDATA[
    .fil0 {fill:#513536;fill-rule:nonzero}
    .fil2 {fill:#A86B76;fill-rule:nonzero}
    .fil3 {fill:#CBA390;fill-rule:nonzero}
    .fil1 {fill:white;fill-rule:nonzero}
   ]]>
  </style>
 </defs>
 <g id="Camada_x0020_1">
  <metadata id="CorelCorpID_0Corel-Layer"/>
  <g id="_2489759118848">
   <path class="fil0" d="M353.34 83.62c-25.81,1.35 -50.88,8.07 -74.51,19.97 -38.74,19.51 -94.51,54.13 -140.26,108.26 -54.96,65.03 -80.61,141.29 -76.25,226.68 3.91,76.48 40.05,129.07 107.44,156.31 29.19,11.8 63.26,18.42 101.27,19.68 36.64,1.22 75.13,-2.56 114.41,-11.24 77.83,-17.18 148.56,-51.42 194.06,-93.92 29,-27.09 46.94,-66.3 51.89,-113.4 4.86,-46.27 -3.45,-97.61 -23.4,-144.56 -21.57,-50.77 -54.82,-93.21 -96.16,-122.75 -46.15,-32.97 -99.47,-48.13 -158.48,-45.04l0 0z"/>
   <polygon class="fil1" points="400.93,282.5 397.26,280.28 478.25,146.32 481.92,148.54 "/>
   <path class="fil2" d="M581.95 29.28c-4.05,-6.66 -10.19,-10.57 -16.52,-14.7 -5.86,-3.82 -11.73,-8.35 -18.19,-11.14 -8.96,-3.88 -19.12,-4.46 -28.51,-1.8 -14.51,4.11 -24.59,14.85 -29.91,28.63 -4.13,10.72 -8.26,21.43 -12.39,32.15 -9.88,25.64 -19.77,51.29 -29.65,76.93 -0.02,0.06 -0.02,0.1 -0.04,0.16 -0.35,0.57 -0.29,1.19 0.54,1.7 16.87,10.51 33.75,21.01 50.62,31.52 1.71,1.07 4.28,0.01 5.37,-1.44 13.87,-18.46 27.75,-36.91 41.62,-55.37 8.73,-11.62 17.47,-23.24 26.21,-34.87 5.28,-7.02 11.76,-14.12 14.44,-22.61 3.06,-9.7 1.69,-20.47 -3.59,-29.15z"/>
   <path class="fil2" d="M390.14 320.41c0,0 33.53,-41.82 7.45,-47.27 0,0 -11.18,-5.45 -29.8,34.55l22.35 12.73z"/>
   <path class="fil3" d="M183.82 401.59l-7.81 0c-19.93,0 -36.23,16.3 -36.23,36.23l0 141.98c9.19,5.66 19.18,10.68 29.98,15.05 13.23,5.35 27.47,9.63 42.61,12.84 4.81,-6.15 7.68,-13.88 7.68,-22.24l0 -147.62c0,-19.93 -16.31,-36.23 -36.23,-36.23z"/>
   <path class="fil3" d="M275.82 307.78l-7.81 0c-19.93,0 -36.23,16.31 -36.23,36.23l0 267.11c12.55,1.82 25.64,2.95 39.24,3.4 13.45,0.45 27.14,0.22 41.04,-0.67l0 -269.84c0,-19.93 -16.31,-36.23 -36.23,-36.23z"/>
   <path class="fil3" d="M367.82 370.92l-7.81 0c-19.93,0 -36.23,16.3 -36.23,36.23l0 205.79c20.22,-1.83 40.82,-5.06 61.65,-9.65 6.26,-1.38 12.47,-2.88 18.63,-4.47l0 -191.67c0,-19.93 -16.31,-36.23 -36.23,-36.23z"/>
   <path class="fil3" d="M456.68 444.88l-9.63 0c-16.92,0 -30.76,13.84 -30.76,30.76l0 109.93c0,3.3 0.53,6.49 1.51,9.48 24.43,-7.06 47.85,-15.77 69.64,-25.85l0 -93.57c0,-16.92 -13.84,-30.76 -30.76,-30.76z"/>
   <path class="fil1" d="M200.88 370.02l-43.74 0 -4.58 80.96c-0.45,7.95 5.88,14.65 13.84,14.65l24.57 0c9.24,0 16.53,-7.86 15.84,-17.08l-5.93 -78.53z"/>
   <path class="fil1" d="M292.54 273.41l-37.88 0 -7.42 83.09c-0.86,9.64 6.73,17.93 16.4,17.93l18.24 0c9.66,0 17.29,-8.19 16.6,-17.83l-5.94 -83.19z"/>
   <path class="fil2" d="M384.22 344.76l-39.69 0 -5.99 78.56c-0.66,8.71 6.23,16.15 14.96,16.15l22.65 0c8.24,0 14.74,-7.01 14.11,-15.23l-6.06 -79.48z"/>
   <path class="fil2" d="M467.2 426.94l-32.47 0 -4.04 49.1c-0.74,9.02 6.38,16.74 15.42,16.74l15.32 0c6.93,0 12.32,-6.02 11.57,-12.9l-5.8 -52.94z"/>
   <polygon class="fil2" points="15.7,266.62 19.7,256.23 70.35,275.77 65.85,287.44 42.63,278.56 62.12,297.11 58.86,305.58 32.22,306.41 55.12,315.25 50.65,326.85 -0,307.31 4.03,296.85 44.45,295.03 "/>
   <path class="fil2" d="M72.24 229.51l8.17 -12.33 -18.39 -3.31 10.22 15.64zm31.7 -8.09l-12 -2.18 -13.3 20.09 6.69 10.19 -7.92 11.95 -31.24 -51.14 6.23 -9.41 59.32 8.74 -7.79 11.76z"/>
   <polygon class="fil2" points="107.72,134.66 117.09,124.95 156.16,162.64 148.8,170.27 109.53,166.61 131.7,188 122.43,197.6 83.37,159.9 90.62,152.39 129.78,155.95 "/>
   <polygon class="fil2" points="174.21,147.57 140.01,105.41 151.14,96.38 185.35,138.54 "/>
   <path class="fil2" d="M212.29 115.36c-4.78,0.35 -9.26,-0.62 -13.46,-2.92 -4.2,-2.3 -7.81,-5.77 -10.84,-10.41 -3,-4.6 -4.7,-9.27 -5.09,-14.02 -0.4,-4.75 0.53,-9.24 2.78,-13.46 2.25,-4.23 5.74,-7.88 10.46,-10.97 2.98,-1.94 6.16,-3.38 9.53,-4.3 3.37,-0.92 6.41,-1.17 9.11,-0.75l1.9 10.87c-5.45,-0.27 -10.16,0.89 -14.12,3.47 -3.66,2.39 -5.72,5.38 -6.16,8.98 -0.44,3.6 0.82,7.67 3.79,12.23 3,4.6 6.24,7.43 9.73,8.5 3.49,1.07 7.06,0.4 10.72,-1.98 3.96,-2.58 6.92,-6.42 8.87,-11.52l9.18 6.12c-0.7,2.64 -2.16,5.32 -4.37,8.03 -2.21,2.71 -4.8,5.04 -7.78,6.98 -4.73,3.08 -9.48,4.8 -14.25,5.15z"/>
   <path class="fil2" d="M262.56 81.66c-5.34,-1.97 -9.6,-6.48 -12.76,-13.53l-12.87 -28.66 12.73 -5.72 13.09 29.14c1.6,3.57 3.63,5.95 6.09,7.13 2.45,1.18 5.16,1.11 8.13,-0.23 2.92,-1.31 4.74,-3.28 5.45,-5.92 0.71,-2.63 0.28,-5.71 -1.3,-9.23l-13.09 -29.14 12.87 -5.78 12.87 28.66c3.12,6.96 3.62,13.13 1.5,18.51 -2.12,5.38 -6.73,9.67 -13.83,12.86 -7.23,3.25 -13.52,3.89 -18.87,1.91z"/>
   <path class="fil2" d="M349.37 28.46c1.27,-1.07 1.81,-2.59 1.62,-4.56 -0.2,-2.07 -1.02,-3.5 -2.45,-4.28 -1.43,-0.78 -3.69,-1.02 -6.78,-0.71l-8.95 0.88 1.14 11.61 8.95 -0.88c3.04,-0.3 5.19,-0.98 6.46,-2.05zm20.78 31.32l-15.1 1.48 -8.75 -17.3c-1.01,-1.94 -3.01,-2.77 -5.99,-2.47l-5.16 0.51 2.07 21.02 -14.04 1.38 -5.31 -54.03 25.12 -2.47c6.53,-0.64 11.57,0.28 15.13,2.76 3.56,2.48 5.6,6.33 6.12,11.54 0.36,3.64 -0.31,6.89 -1.99,9.73 -1.69,2.85 -4.25,5 -7.68,6.46 1.55,0.15 2.98,0.73 4.31,1.72 1.32,0.99 2.43,2.39 3.32,4.19l7.96 15.46z"/>
   <polygon class="fil2" points="389.72,60.95 396.95,7.15 435.34,12.31 433.88,23.19 409.32,19.89 407.96,30.02 430.93,33.1 429.47,43.98 406.5,40.9 405.01,51.93 429.57,55.23 428.11,66.11 "/>
  </g>
 </g>
</svg>
